<?xml version="1.0" standalone="no"?>
<!DOCTYPE svg PUBLIC "-//W3C//DTD SVG 20010904//EN"
 "http://www.w3.org/TR/2001/REC-SVG-20010904/DTD/svg10.dtd">
<svg version="1.0" xmlns="http://www.w3.org/2000/svg"
 width="512.000000pt" height="512.000000pt" viewBox="0 0 512.000000 512.000000"
 preserveAspectRatio="xMidYMid meet">

<g transform="translate(0.000000,512.000000) scale(0.100000,-0.100000)"
fill="#000000" stroke="none">
<path d="M2470 5106 c-36 -6 -386 -133 -777 -281 -547 -206 -713 -273 -713
-285 0 -13 62 -40 248 -110 l247 -93 32 -196 c28 -171 35 -198 55 -214 27 -22
33 -22 238 24 293 64 465 82 780 82 306 -1 459 -17 755 -83 196 -44 216 -46
243 -23 20 16 27 43 55 214 l32 196 165 62 c91 34 168 61 173 61 4 0 7 -54 7
-121 0 -109 -2 -122 -20 -137 -17 -14 -24 -43 -40 -179 -28 -228 -28 -242 -1
-265 20 -15 41 -18 138 -18 108 0 115 1 139 25 20 20 23 31 19 62 -3 21 -14
110 -25 198 -16 136 -21 162 -39 176 -20 16 -21 27 -21 183 0 157 -1 166 -21
176 -11 6 -334 130 -718 275 -789 297 -796 300 -951 271z"/>
<path d="M1275 1855 c-432 -188 -753 -587 -856 -1064 -30 -136 -39 -482 -15
-563 24 -83 81 -149 163 -190 l68 -33 1925 0 1925 0 67 33 c79 39 129 93 158
169 17 46 20 78 20 221 0 260 -25 412 -101 607 -75 195 -190 369 -344 520
-118 117 -240 203 -393 277 -104 51 -126 58 -137 47 -7 -8 -52 -77 -100 -154
-311 -496 -714 -1127 -743 -1162 -42 -52 -124 -108 -200 -135 -79 -28 -224
-28 -303 0 -75 27 -134 65 -186 121 -24 25 -226 334 -449 686 -222 352 -408
643 -412 647 -4 4 -43 -8 -87 -27z"/>
</g>
</svg>
